<svg width="356" height="123" viewBox="0 0 356 123" fill="none" xmlns="http://www.w3.org/2000/svg">
<path d="M120.739 96.0001H72.9391V85.5001L89.5391 67.4001C92.9391 63.6668 95.6058 60.5668 97.5391 58.1001C99.5391 55.5668 100.939 53.3001 101.739 51.3001C102.606 49.2334 103.039 47.0334 103.039 44.7001C103.039 41.8334 102.339 39.7001 100.939 38.3001C99.6058 36.9001 97.8724 36.2001 95.7391 36.2001C93.4057 36.2001 91.0724 36.8334 88.7391 38.1001C86.4724 39.3668 83.9724 41.1668 81.2391 43.5001L72.4391 33.8001C74.4391 32.0001 76.5391 30.3334 78.7391 28.8001C80.9391 27.2668 83.5391 26.0334 86.5391 25.1001C89.5391 24.1001 93.1391 23.6001 97.3391 23.6001C101.806 23.6001 105.672 24.4668 108.939 26.2001C112.206 27.8668 114.706 30.1668 116.439 33.1001C118.239 35.9668 119.139 39.2334 119.139 42.9001C119.139 45.9001 118.706 48.6334 117.839 51.1001C116.972 53.5668 115.706 56.0001 114.039 58.4001C112.439 60.8001 110.506 63.3001 108.239 65.9001C105.972 68.4334 103.439 71.3001 100.639 74.5001L93.4391 82.6001L93.3391 83.3001H120.739V96.0001Z" fill="#61168C"/>
<path d="M61.7 96.0001H40.8L13.9 42.0001H13.5C13.5667 43.6668 13.6333 45.3668 13.7 47.1001C13.7667 48.7668 13.8333 50.4668 13.9 52.2001C14.0333 53.8668 14.1333 55.5668 14.2 57.3001C14.2667 58.9668 14.3333 60.6668 14.4 62.4001V96.0001H0V24.6001H20.8L47.6 78.1001H47.9C47.9 76.4334 47.8667 74.8001 47.8 73.2001C47.7333 71.5334 47.6333 69.9001 47.5 68.3001C47.4333 66.6334 47.3667 65.0001 47.3 63.4001C47.2333 61.7334 47.2 60.0668 47.2 58.4001V24.6001H61.7V96.0001Z" fill="#61168C"/>
<path d="M321.934 39.5961C321.934 40.7614 321.873 41.9574 321.75 43.1841C321.689 44.4107 321.597 45.5147 321.474 46.4961H322.026C323.069 44.7787 324.387 43.3681 325.982 42.2641C327.577 41.1601 329.355 40.3321 331.318 39.7801C333.281 39.1667 335.305 38.8601 337.39 38.8601C341.377 38.8601 344.689 39.5041 347.326 40.7921C350.025 42.0187 352.049 43.9507 353.398 46.5881C354.747 49.2254 355.422 52.6601 355.422 56.8921V89.0001H347.418V57.4441C347.418 53.4574 346.529 50.4827 344.75 48.5201C342.971 46.5574 340.181 45.5761 336.378 45.5761C332.698 45.5761 329.815 46.2814 327.73 47.6921C325.645 49.0414 324.142 51.0654 323.222 53.7641C322.363 56.4014 321.934 59.6521 321.934 63.5161V89.0001H313.838V19.0801H321.934V39.5961Z" fill="#61168C"/>
<path d="M301.923 75.3841C301.923 78.5734 301.125 81.2414 299.531 83.3881C297.936 85.5347 295.667 87.1601 292.723 88.2641C289.779 89.3681 286.283 89.9201 282.235 89.9201C278.8 89.9201 275.825 89.6441 273.311 89.0921C270.857 88.5401 268.68 87.7734 266.779 86.7921V79.4321C268.741 80.4134 271.103 81.3334 273.863 82.1921C276.684 82.9894 279.536 83.3881 282.419 83.3881C286.528 83.3881 289.503 82.7441 291.343 81.4561C293.183 80.1067 294.103 78.3281 294.103 76.1201C294.103 74.8934 293.765 73.7894 293.091 72.8081C292.416 71.8267 291.189 70.8454 289.411 69.8641C287.693 68.8827 285.209 67.7787 281.959 66.5521C278.769 65.3254 276.04 64.0987 273.771 62.8721C271.501 61.6454 269.753 60.1734 268.527 58.4561C267.3 56.7387 266.687 54.5307 266.687 51.8321C266.687 47.6614 268.373 44.4414 271.747 42.1721C275.181 39.9027 279.659 38.7681 285.179 38.7681C288.184 38.7681 290.975 39.0747 293.551 39.6881C296.188 40.2401 298.641 41.0374 300.911 42.0801L298.151 48.5201C296.801 47.9067 295.36 47.3854 293.827 46.9561C292.355 46.4654 290.852 46.0974 289.319 45.8521C287.785 45.5454 286.221 45.3921 284.627 45.3921C281.315 45.3921 278.769 45.9441 276.991 47.0481C275.273 48.0907 274.415 49.5321 274.415 51.3721C274.415 52.7214 274.813 53.8867 275.611 54.8681C276.408 55.7881 277.727 56.7081 279.567 57.6281C281.468 58.4867 283.983 59.5294 287.111 60.7561C290.239 61.9214 292.907 63.1174 295.115 64.3441C297.323 65.5707 299.009 67.0734 300.175 68.8521C301.34 70.5694 301.923 72.7467 301.923 75.3841Z" fill="#61168C"/>
<path d="M236.92 38.8601C242.931 38.8601 247.378 40.1788 250.26 42.8161C253.143 45.4534 254.584 49.6548 254.584 55.4201V89.0001H248.696L247.132 82.0081H246.764C245.354 83.7868 243.882 85.2894 242.348 86.5161C240.876 87.6814 239.159 88.5401 237.196 89.0921C235.295 89.6441 232.964 89.9201 230.204 89.9201C227.26 89.9201 224.592 89.3988 222.2 88.3561C219.87 87.3134 218.03 85.7188 216.68 83.5721C215.331 81.3641 214.656 78.6041 214.656 75.2921C214.656 70.3854 216.588 66.6134 220.452 63.9761C224.316 61.2774 230.266 59.8054 238.3 59.5601L246.672 59.2841V56.3401C246.672 52.2308 245.783 49.3788 244.004 47.7841C242.226 46.1894 239.711 45.3921 236.46 45.3921C233.884 45.3921 231.431 45.7908 229.1 46.5881C226.77 47.3241 224.592 48.1828 222.568 49.1641L220.084 43.0921C222.231 41.9268 224.776 40.9454 227.72 40.1481C230.664 39.2894 233.731 38.8601 236.92 38.8601ZM239.312 65.1721C233.179 65.4174 228.916 66.3988 226.524 68.1161C224.194 69.8334 223.028 72.2561 223.028 75.3841C223.028 78.1441 223.856 80.1681 225.512 81.4561C227.23 82.7441 229.407 83.3881 232.044 83.3881C236.215 83.3881 239.68 82.2534 242.44 79.9841C245.2 77.6534 246.58 74.0961 246.58 69.3121V64.8961L239.312 65.1721Z" fill="#61168C"/>
<path d="M177.752 61.1239C177.384 59.8359 177.016 58.5786 176.648 57.3519C176.28 56.0639 175.943 54.8679 175.636 53.7639C175.391 52.5986 175.145 51.5253 174.9 50.5439C174.655 49.5626 174.471 48.7346 174.348 48.0599H173.98C173.857 48.7346 173.673 49.5626 173.428 50.5439C173.244 51.5253 172.999 52.5986 172.692 53.7639C172.447 54.9293 172.14 56.1559 171.772 57.4439C171.465 58.6706 171.097 59.9279 170.668 61.2159L161.836 88.9079H152.636L139.112 39.5959H147.484L154.292 65.9079C154.783 67.6866 155.243 69.4959 155.672 71.3359C156.101 73.1146 156.469 74.8319 156.776 76.4879C157.144 78.0826 157.389 79.4626 157.512 80.6279H157.88C158.064 79.8919 158.279 78.9719 158.524 77.8679C158.769 76.7639 159.015 75.5986 159.26 74.3719C159.567 73.1453 159.873 71.9186 160.18 70.6919C160.548 69.4653 160.885 68.3613 161.192 67.3799L169.932 39.5959H178.764L187.228 67.3799C187.657 68.7906 188.087 70.2933 188.516 71.8879C189.007 73.4826 189.436 75.0466 189.804 76.5799C190.172 78.0519 190.417 79.3706 190.54 80.5359H190.908C191.031 79.4933 191.245 78.2053 191.552 76.6719C191.92 75.0773 192.319 73.3599 192.748 71.5199C193.239 69.6186 193.729 67.7479 194.22 65.9079L201.12 39.5959H209.4L195.692 88.9079H186.216L177.752 61.1239Z" fill="#61168C"/>
<rect x="0.100006" width="120" height="11" fill="#61168C"/>
<rect x="0.100006" y="112" width="120" height="11" fill="#61168C"/>
</svg>
